<?xml version="1.0" encoding="UTF-8"?>
<svg width="598px" height="138px" viewBox="0 0 598 138" version="1.1" xmlns="http://www.w3.org/2000/svg" xmlns:xlink="http://www.w3.org/1999/xlink">
    <defs>
        <path d="M59.42,40.595 C59.42,32.842 53.594,27.732 42.611,27.732 L26.134,27.732 L26.134,53.794 L42.611,53.794 C53.594,53.794 59.42,48.348 59.42,40.595 Z M94.541,119.771 L65.247,119.771 L39.614,77.38 L26.134,77.38 L26.134,119.771 L0,119.771 L0,2 L43.444,2 C66.411,2 85.716,15.855 85.716,39.442 C85.716,55.611 77.231,65.999 65.409,71.773 L94.541,119.771 Z M159.684,68.802 C158.69,61.385 151.53,53.794 140.71,53.794 C130.059,53.794 122.907,61.546 121.735,68.802 L159.684,68.802 Z M182.82,85.957 L122.236,85.957 C123.57,94.206 131.061,100.309 141.211,100.309 C149.203,100.309 154.86,96.513 159.021,91.571 L178.828,101.798 C170.505,113.836 156.355,122.085 140.879,122.085 C117.913,122.085 96.611,105.091 96.611,77.219 C96.611,52.808 114.915,33.01 140.047,33.01 C165.842,33.01 183.321,52.969 183.321,77.051 C183.321,80.022 183.152,83.979 182.82,85.957 Z M250.638,87.607 L250.638,80.022 C245.482,81.008 242.484,81.504 234.831,83.154 C228.003,84.643 218.847,86.293 218.847,93.878 C218.847,99.813 224.673,101.798 231.001,101.798 C236.827,101.798 246.314,98.988 249.474,93.221 C250.638,91.075 250.638,90.082 250.638,87.607 Z M250.476,119.771 L250.476,111.033 L249.305,111.033 C242.484,117.793 234.661,121.757 223.178,121.757 C206.531,121.757 193.715,110.536 193.715,96.024 C193.715,80.022 205.367,71.605 220.512,68.642 C225.675,67.649 245.482,64.349 250.476,63.692 C250.476,58.575 244.811,53.633 235.324,53.633 C227.502,53.633 222.014,57.59 220.018,61.385 L197.213,56.925 C200.373,46.866 212.527,32.842 236.488,32.842 C262.954,32.842 274.275,49.997 274.275,67.32 L274.275,119.771 L250.476,119.771 Z M343.897,69.167 L387.289,139.846 L358.334,139.846 L326.727,87.768 L326.572,87.936 L317.417,97.834 L317.417,119.939 L292.947,119.939 L292.947,2.956 L317.417,2.956 L317.417,63.853 L344.545,35.317 L375.334,35.317 L343.897,69.167 Z M413.939,122.246 C397.461,122.246 385.477,110.865 385.477,93.878 L385.477,14.271 L409.947,14.271 L409.947,35.653 L433.613,35.653 L433.613,55.611 L409.947,55.611 L409.947,86.782 C409.947,94.703 413.445,99.981 421.43,99.981 C427.087,99.981 433.613,98.827 435.108,98.331 L435.108,118.953 C432.611,119.771 424.096,122.246 413.939,122.246 Z M509.769,76.927 C509.769,62.78 499.81,54.231 488.857,54.231 C477.904,54.231 467.945,62.78 467.945,76.927 C467.945,91.243 477.072,100.287 488.857,100.287 C500.642,100.287 509.769,91.243 509.769,76.927 Z M533.509,76.927 C533.509,105.054 511.927,121.837 488.857,121.837 C465.957,121.837 444.213,105.054 444.213,76.927 C444.213,52.253 463.96,32.842 488.857,32.842 C513.923,32.842 533.509,52.253 533.509,76.927 Z M597.511,58.013 C582.241,58.013 571.782,64.919 571.782,78.738 L571.782,119.53 L547.386,119.53 L547.386,35.31 L571.782,35.31 L571.782,45.179 C574.942,40.245 585.563,32.842 597.511,32.842 L597.511,58.013 Z" id="path-1"></path>
    </defs>
    <g id="Page-1" stroke="none" stroke-width="1" fill="none" fill-rule="evenodd">
        <g id="reaktor_logo_epsWHITE" transform="translate(0.000000, -2.000000)">
            <mask id="mask-2" fill="white">
                <use xlink:href="#path-1"></use>
            </mask>
            <g id="Clip-2"></g>
            <polygon id="Fill-1" fill="#FFFFFF" mask="url(#mask-2)" points="-0.04 139.92 597.56 139.92 597.56 1.92 -0.04 1.92"></polygon>
        </g>
    </g>
</svg>